/* XPM */
static char *_fd28eac929e41c6e0c560101f69b4dd[] = {
/* columns rows colors chars-per-pixel */
"16 16 90 1 ",
"  c None",
". c #191C1B",
"X c #1E2121",
"o c #212020",
"O c #232221",
"+ c #302A28",
"@ c #3C3534",
"# c #343D3D",
"$ c #503D36",
"% c #564035",
"& c #594238",
"* c #674736",
"= c #124D54",
"- c #15535B",
"; c #494340",
": c #434F4F",
"> c #534642",
", c #5B534C",
"< c #624F44",
"1 c #6C534A",
"2 c #705642",
"3 c #705546",
"4 c #765B48",
"5 c #7B5C49",
"6 c #765B52",
"7 c #7F5E50",
"8 c #7B604C",
"9 c #7F7E72",
"0 c #865D57",
"q c #836353",
"w c #846852",
"e c #896758",
"r c #846858",
"t c #876959",
"y c #85685A",
"u c #84685B",
"i c #8B6A5B",
"p c #8F705C",
"a c #94725C",
"s c #967566",
"d c #9A8070",
"f c #029AAF",
"g c #049CB1",
"h c #049EB4",
"j c #04A2B8",
"k c #04ACBD",
"l c #63A7B5",
"z c #02A9C0",
"x c #02AAC1",
"c c #06AAC0",
"v c #05B8D1",
"b c #03C1D8",
"n c #0BC4DE",
"m c #10C2DB",
"M c #00C5E0",
"N c #01CAE6",
"B c #00CCE8",
"V c #00CCE9",
"C c #00CEEB",
"Z c #16C9E0",
"A c #15CAE0",
"S c #01D3F0",
"D c #00D5F2",
"F c #04D9F7",
"G c #00DAF9",
"H c #00DBFA",
"J c #01DCFA",
"K c #00DDFC",
"L c #01DEFC",
"P c #00DEFD",
"I c #01DFFD",
"U c #02DFFD",
"Y c #06DFFD",
"T c #09DFFD",
"R c #28CCE6",
"E c #30CAE1",
"W c #1FE0FD",
"Q c #30E1FD",
"! c #38E1FC",
"~ c #848D83",
"^ c #9E9489",
"/ c #ADACAC",
"( c #96B8C5",
") c #B1BFC2",
"_ c #ACCFDC",
"` c #BAD4DF",
"' c #8BD2E7",
"] c #93DDF0",
"[ c #88E5FB",
"{ c #BCE2F4",
/* pixels */
"                ",
"                ",
"                ",
"     NPbkPU     ",
"   gDn-.X=vI    ",
"   MW:@+Oo#mU   ",
"  fP[;<%&$>lK   ",
"  zI{,25qt4(CT  ",
"  xU/*w3yr8_VT  ",
"  hP]dp1u6^'H   ",
"   BQ`aies)RU   ",
"   jG!~709EP    ",
"    cSLAZJU     ",
"       FY       ",
"                ",
"                "
};
