/* XPM */
static char *_75bbf50bef8423bd0ee12ebcc7bbcbb[] = {
/* columns rows colors chars-per-pixel */
"64 64 206 2 ",
"   c None",
".  c #171412",
"X  c #1D1C1B",
"o  c #171817",
"O  c #12100F",
"+  c #211F1D",
"@  c #21201E",
"#  c #132325",
"$  c #0F2B2F",
"%  c #242322",
"&  c #2A2624",
"*  c #2B2926",
"=  c #2D2A29",
"-  c #272826",
";  c #342C2A",
":  c #372A26",
">  c #3A312D",
",  c #343131",
"<  c #3B3433",
"1  c #3C3937",
"2  c #2B3436",
"3  c #49352C",
"4  c #4A3A2E",
"5  c #43342B",
"6  c #4C3B33",
"7  c #433C3B",
"8  c #4A3D3C",
"9  c #443936",
"0  c #533D34",
"q  c #523F2F",
"w  c #6A3D39",
"e  c #4A413B",
"r  c #564234",
"t  c #5B4435",
"y  c #53443C",
"u  c #5C463C",
"i  c #5F4838",
"p  c #644A3E",
"a  c #644837",
"s  c #704B37",
"d  c #413D40",
"f  c #7B3F42",
"g  c #0D4D55",
"h  c #0B585B",
"j  c #19474D",
"k  c #3B5B5D",
"l  c #2C4A4D",
"z  c #125F68",
"x  c #0B686B",
"c  c #097879",
"v  c #3B6A6F",
"b  c #4C4541",
"n  c #474140",
"m  c #514542",
"M  c #5C4A45",
"N  c #554A47",
"B  c #5C5755",
"V  c #56504A",
"C  c #644D42",
"Z  c #664C42",
"A  c #6C5243",
"S  c #67524A",
"D  c #735543",
"F  c #7B5B47",
"G  c #76564A",
"H  c #745A4B",
"J  c #7B5C4B",
"K  c #785748",
"L  c #635A58",
"P  c #7B5F52",
"I  c #765A53",
"U  c #7F614C",
"Y  c #7D6254",
"T  c #666665",
"R  c #767979",
"E  c #70756E",
"W  c #894533",
"Q  c #8B533C",
"!  c #915438",
"~  c #86474E",
"^  c #835948",
"/  c #855954",
"(  c #925B40",
")  c #82634D",
"_  c #88674E",
"`  c #836454",
"'  c #856A55",
"]  c #8B6B54",
"[  c #836659",
"{  c #86695B",
"}  c #8B6C5C",
"|  c #8B6456",
" . c #926E5B",
".. c #926D55",
"X. c #8D715D",
"o. c #93735D",
"O. c #A5725D",
"+. c #8B6E61",
"@. c #8D7163",
"#. c #827667",
"$. c #947364",
"%. c #997664",
"&. c #9B7A64",
"*. c #93756A",
"=. c #9C7C6A",
"-. c #977962",
";. c #906D61",
":. c #A17F69",
">. c #A47965",
",. c #5D857D",
"<. c #64857E",
"1. c #9C816A",
"2. c #A2816C",
"3. c #A58976",
"4. c #AD917D",
"5. c #097A84",
"6. c #437980",
"7. c #018B9E",
"8. c #0A8792",
"9. c #288391",
"0. c #048EA1",
"q. c #098FA2",
"w. c #0C92A4",
"e. c #0295AA",
"r. c #0299AD",
"t. c #0695A8",
"y. c #1696A9",
"u. c #0D9EB3",
"i. c #049FB4",
"p. c #03A1B6",
"a. c #02A5BB",
"s. c #04A9BD",
"d. c #09A4BA",
"f. c #14A3B9",
"g. c #29A3B6",
"h. c #39A9B5",
"j. c #519493",
"k. c #628586",
"l. c #789D9D",
"z. c #45A9BA",
"x. c #77ACAE",
"c. c #03ACC4",
"v. c #09ABC1",
"b. c #02B3CC",
"n. c #0AB5CB",
"m. c #03BAD3",
"M. c #01B9D3",
"N. c #15BFD5",
"B. c #1ABACE",
"V. c #2DB4C9",
"C. c #54B6C9",
"Z. c #4AAEC2",
"A. c #6ABFD3",
"S. c #03C3DD",
"D. c #00C6E1",
"F. c #02C9E5",
"G. c #02CEEA",
"H. c #0AC9E3",
"J. c #02D1ED",
"K. c #01D6F3",
"L. c #02D9F7",
"P. c #00DFFE",
"I. c #09DFFD",
"U. c #08D7F3",
"Y. c #10DFFC",
"T. c #22CDE2",
"R. c #00E0FF",
"E. c #0DE0FD",
"W. c #13E0FD",
"Q. c #1BE0FD",
"!. c #25E1FD",
"~. c #3FE2FD",
"^. c #75C2D6",
"/. c #4ADCF2",
"(. c #4DE3FD",
"). c #5FE4FD",
"_. c #6CE5FD",
"`. c #77E5FD",
"'. c #8F8E89",
"]. c #AA9686",
"[. c #A99E95",
"{. c #B0A499",
"}. c #9CAEB5",
"|. c #B8B8B5",
" X c #ACB1AD",
".X c #B9C0BE",
"XX c #84CADE",
"oX c #95C8D8",
"OX c #B3C7CC",
"+X c #B7CED9",
"@X c #B9D1DB",
"#X c #8DCEE2",
"$X c #9AD5E9",
"%X c #BDDDEE",
"&X c #B9D7E4",
"*X c #85E6FD",
"=X c #95E4F9",
"-X c #A7E8FD",
";X c #B4E9FF",
":X c #BAE5F9",
">X c #C0D7DF",
",X c #C1D9E3",
"<X c #C3E3F3",
"1X c #C3E6F9",
"2X c #C4EAFE",
"3X c #C1E0ED",
/* pixels */
"                                                                                                                                ",
"                                                                                                                                ",
"                                                                                                                                ",
"                                                                                                                                ",
"                                                                                                                                ",
"                                                                                                                                ",
"                                                                                                                                ",
"                                                                                                                                ",
"                                                                                                                                ",
"                                                                                                                                ",
"                                                                                                                                ",
"                                                f.n.S.J.L.R.R.J.d.K.P.P.R.E.W.                                                  ",
"                                          q.p.M.J.P.R.R.P.P.R.p.c m.R.R.R.R.R.R.E.E.                                            ",
"                                      q.t.m.K.R.R.P.P.P.R.R.J.c h 8.L.R.R.R.R.R.R.R.E.W.                                        ",
"                                    0.a.J.R.R.P.R.R.P.P.R.R.s.c x x S.R.R.R.R.R.R.R.R.P.I.                                      ",
"                                q.0.b.L.R.P.R.P.P.R.R.R.L.F.t.8.8.8.s.J.R.R.R.L.R.R.P.P.P.P.                                    ",
"                              q.0.M.P.P.P.P.P.P.P.L.m.5.h $ # o # # $ g 5.v.J.P.R.P.P.P.P.P.P.Q.                                ",
"                            q.0.M.P.P.P.P.P.R.P.n.z # O . o . o o % & + o # g r.G.P.P.P.P.P.P.P.                                ",
"                          q.7.b.P.P.P.P.P.R.G.9.2 . . X + + o o o % & - + o . # x c.L.P.P.P.P.P.P.                              ",
"                        w.7.a.K.P.P.P.P.R.N.v 9 & % X % % + + + + % = & + + X o + j r.J.P.P.P.P.P.I.                            ",
"                        0.e.G.R.P.P.P.P.N.B l d , = & ; * : : @ + + - - # % + + & = l w.J.P.P.P.R.P.W.                          ",
"                      q.7.b.P.P.P.P.P.!.k.7 7 1 , , < < < ; * @ X + % - @ @ % - & & < k t.K.P.P.P.P.P.                          ",
"                      7.r.K.R.P.P.P.Y.=XR 7 1 , < 9 d 8 9 > & @ X % - % % @ + % = = 1 N 6.v.L.P.P.P.P.E.                        ",
"                    q.7.M.R.P.R.P.P._.:XT 7 1 , < 8 m b 8 > & + X % = & & % + # = 1 n V R z.M.P.R.P.P.P.                        ",
"                    7.e.J.P.P.P.P.!.;X%XT d 1 2 9 N S M 8 5 : & : ; > 5 > : % & , 7 N V E oXf.G.R.R.P.P.W.                      ",
"                  q.7.a.P.P.P.P.P.`.2X&XB e 7 e N S S p 0 4 3 5 3 3 3 0 0 6 : : 7 e N B L +XC.b.R.P.P.P.P.                      ",
"                  0.0.M.R.P.P.R.Q.;X2X&XT d e y V S U A p a t p Z Z p A A Z 0 0 e y M M L +X$Xu.K.P.P.R.R.Q.                    ",
"                  0.0.G.R.P.P.P.(.2X2X&XB b b 7 r S s H H A s D G G K / / J A Z p p M M B &X:Xg.D.R.P.P.P.W.                    ",
"                  7.r.K.R.P.P.P.`.2X2X3XT N N 6 r p D F U F D F J J / ` { { Y U J A A u V @X2XC.b.P.P.P.P.E.                    ",
"                w.7.i.P.P.P.P.E.-X2X2X2X'.y y 4 t D U U U U F U ^ ` ` ' { { { ' ) ^ U t V ,X2X^.a.P.P.P.P.P.                    ",
"                q.7.a.P.R.P.P.Q.-X2X1X2X}.e e 4 t A U U U D F F U { ' { } } } } ' ' _ t B %X2X#Xi.L.P.P.P.E.                    ",
"                w.7.c.R.P.P.P.!.;X1X|.|.'.9 4 r i U U U U U F U ' { { { +.} +.} ] ] _ t T :X2X$Xu.K.R.P.P.P.                    ",
"                w.7.c.P.P.P.P.!.:X<X>.! a 5 4 a s U U U U F F ` ' } { } X.+.X.} ] X._ r <.1X2X$Xd.K.R.R.R.P.                    ",
"                q.7.c.R.P.P.R.Q.;X<XO.! s 5 4 K X.] ' U p i Z H Y } +.@.@.X.} } ] ] _ t 3.<X2X$Xu.L.R.R.P.I.                    ",
"                q.7.a.R.P.R.R.Q.;X2X].! ! a 4 ) 1.X.[ A u u M p H Y { +.} [ Y Y U ] X.i '.<X2X#Xi.K.R.R.P.P.                    ",
"                y.7.i.L.P.P.P.I.=X2X|.! W s t X.1.X.' J J Y Y Y P [ } +.} [ H Z S Y X.H OX2X2X^.s.R.R.R.P.E.                    ",
"                  7.e.K.R.P.P.P._.2X,X:.W s F o.1.] U s Z d Z S I Y +.+.{ [ [ +.{ X.o.'.1X1X2XZ.b.R.L.R.R.E.                    ",
"                  0.0.F.R.R.P.P.(.;X2X@X4.Q ] &.1.1.' U C 9 : f H Y +.+.Y S y C ` &.1.OX2X2X:Xf.F.R.R.R.R.W.                    ",
"                  w.7.b.R.R.P.P.W.=X2X2X+X....2.1.&.X.' { P I P Y Y @.*.[ S 8 M Y =.{.:X2X2X#Xa.R.R.R.R.R.                      ",
"                  w.7.p.L.P.P.P.P._.2X2X<X X4.3.2.-.X.X.} / [ [ Y [ *.*.@./ [ ;.=.3.>X2X2X:Xh.m.R.R.R.R.E.                      ",
"                    q.0.F.R.P.P.P.Q.-X2X2X2X&X4.2.o.o.o. .;.+.[ P / @.$.*.*.$.*.=.].<X2X2XXXd.K.P.P.R.P.Q.                      ",
"                    w.7.c.P.P.P.P.P.(.:X2X2X3X].>.o.o...$.%.+.K D ` +.$.$.=.=.=.:.{.1X2X:Xg.D.P.P.P.P.P.                        ",
"                      q.e.F.R.P.P.P.P.`.2X1X<X{.&.o. . .%.*.| D ^ { %. .| %.=.2.3.|.2X:XC.b.P.R.R.P.P.Q.                        ",
"                      w.7.c.P.P.P.P.P.W.*X2X2X|.o...]  .%.$.[ J ) ' @. .} } =.:.3.,X2XA.b.L.P.P.P.P.P.                          ",
"                        q.0.S.P.P.P.P.P.Q.*X2X@X1.] ] ..$.+.Y Y { @.*.*.+.| &.>.{.<X^.b.K.R.P.P.P.P.Q.                          ",
"                          7.r.J.R.P.R.P.R.E._.:X X] _ }  .` I G I / / +.+.{ %.3.}.C.m.L.R.P.P.R.R.W.                            ",
"                          y.7.a.K.R.P.P.R.R.E.~.=X[.] ] } K A w f ~ ~ J ] o.1.l.V.G.P.P.P.P.P.P.E.                              ",
"                            q.7.s.L.R.R.P.R.R.R.W./.x.#.) ^ U H ~ / |  .Y k.h.H.P.E.P.P.P.P.P.I.                                ",
"                              w.0.a.K.P.P.P.P.P.P.P.E.T.h.j.,.E E k.j.h.B.G.P.R.P.R.P.P.P.P.E.                                  ",
"                                  q.p.G.R.P.P.P.P.P.P.R.R.P.L.U.U.L.P.R.R.P.P.P.P.P.P.R.P.W.                                    ",
"                                    w.r.M.L.R.P.P.P.P.P.P.P.P.P.R.R.P.P.P.P.P.R.P.P.P.P.!.                                      ",
"                                        t.a.F.P.R.R.R.P.P.P.P.P.R.R.P.P.R.P.P.P.P.I.Q.                                          ",
"                                            y.d.S.K.P.E.R.R.P.P.P.P.P.R.P.R.P.I.Q.                                              ",
"                                                y.f.n.H.J.L.I.P.P.P.I.I.E.Q.                                                    ",
"                                                                                                                                ",
"                                                                                                                                ",
"                                                                                                                                ",
"                                                                                                                                ",
"                                                                                                                                ",
"                                                                                                                                ",
"                                                                                                                                ",
"                                                                                                                                ",
"                                                                                                                                ",
"                                                                                                                                "
};
