/* XPM */
static char *_111cd701baf48a39c819bcf91c85a23[] = {
/* columns rows colors chars-per-pixel */
"32 32 158 2 ",
"   c None",
".  c #1E1B19",
"X  c #1E1916",
"o  c #211E1B",
"O  c #20201F",
"+  c #18292A",
"@  c #162424",
"#  c #15393D",
"$  c #232221",
"%  c #292624",
"&  c #242C2D",
"*  c #322D2C",
"=  c #382C28",
"-  c #35302E",
";  c #3C3433",
":  c #3F3838",
">  c #42332D",
",  c #48362F",
"<  c #4C3C2E",
"1  c #403937",
"2  c #4C3F38",
"3  c #463A37",
"4  c #4A403D",
"5  c #5C4334",
"6  c #5C463D",
"7  c #77442F",
"8  c #624B3C",
"9  c #694C3E",
"0  c #6A503D",
"q  c #0E5D68",
"w  c #0C616C",
"e  c #12646F",
"r  c #097378",
"t  c #276167",
"y  c #4C4442",
"u  c #5E4A42",
"i  c #564A46",
"p  c #5C5B5B",
"a  c #614C44",
"s  c #694E40",
"d  c #6D5243",
"f  c #6E564C",
"g  c #725546",
"h  c #72574C",
"j  c #7C5D4B",
"k  c #735946",
"l  c #7A5D53",
"z  c #7D614D",
"x  c #7E6354",
"c  c #7F6956",
"v  c #7E6158",
"b  c #6B6B6A",
"n  c #706E69",
"m  c #777A6E",
"M  c #814D4B",
"N  c #825F54",
"B  c #81634D",
"V  c #836354",
"C  c #8C6A54",
"Z  c #846459",
"A  c #876A5A",
"S  c #8B6D5D",
"D  c #8E6453",
"F  c #916E5C",
"G  c #94735E",
"H  c #8C6960",
"J  c #8E7166",
"K  c #937262",
"L  c #9C7B64",
"P  c #997768",
"I  c #9F7C69",
"U  c #967968",
"Y  c #A17561",
"T  c #7C8479",
"R  c #9E8A7B",
"E  c #A1846F",
"W  c #A58276",
"Q  c #058D9F",
"!  c #088C95",
"~  c #27808D",
"^  c #3C8088",
"/  c #3E939F",
"(  c #058EA1",
")  c #0692A6",
"_  c #0399AE",
"`  c #0B9AAE",
"'  c #059DB2",
"]  c #04A0B6",
"[  c #02A8BF",
"{  c #09A8BE",
"}  c #37ABB6",
"|  c #7E929A",
" . c #52A4AA",
".. c #05ABC1",
"X. c #01B1C9",
"o. c #04B2C3",
"O. c #02B7D0",
"+. c #03BAD3",
"@. c #01BFD9",
"#. c #09BFD9",
"$. c #12BFD8",
"%. c #28BBCA",
"&. c #39BDD3",
"*. c #03C3DD",
"=. c #0AC3DD",
"-. c #10C0D9",
";. c #26C0D7",
":. c #21C3DC",
">. c #05C5E0",
",. c #01C9E5",
"<. c #08C8E4",
"1. c #01CDE9",
"2. c #12CDE6",
"3. c #04D1ED",
"4. c #13D5EF",
"5. c #01D5F3",
"6. c #03DAF7",
"7. c #02DEFD",
"8. c #09DFFD",
"9. c #10DDFA",
"0. c #29C8E2",
"q. c #00E0FF",
"w. c #0DE0FD",
"e. c #1BE1FF",
"r. c #12E0FE",
"t. c #2CE1FD",
"y. c #33E3FF",
"u. c #5FC9D7",
"i. c #62C4D9",
"p. c #74C8DD",
"a. c #68D9EE",
"s. c #49E3FD",
"d. c #74E6FF",
"f. c #9F998E",
"g. c #8C9599",
"h. c #A89486",
"j. c #919FA6",
"k. c #9FAFB5",
"l. c #8EB8BE",
"z. c #B4ACA5",
"x. c #B3B5B2",
"c. c #B9BFC5",
"v. c #B7C5CB",
"b. c #BDCED4",
"n. c #82CEE3",
"m. c #8FD2E7",
"M. c #9ADAED",
"N. c #A9DAEC",
"B. c #B9D6E6",
"V. c #A5DCF1",
"C. c #85E7FF",
"Z. c #91E7FE",
"A. c #9DE8FF",
"S. c #A9E6FB",
"D. c #BFE0F3",
"F. c #BCE6FB",
"G. c #C4EAFE",
"H. c #C4E5F6",
/* pixels */
"                                                                ",
"                                                                ",
"                                                                ",
"                                                                ",
"                                                                ",
"                          >.5.5.=.q.w.                          ",
"                    [ >.5.7.7.o.! 7.q.q.q.                      ",
"                ) X.5.q.q.7.,.! r +.7.q.q.q.8.                  ",
"              ) O.7.q.7...q # @ + # q ' 5.7.7.8.                ",
"            ( X.7.7.3.~ & o o X o % . @ e *.7.7.8.              ",
"            ' 5.q.9.^ 1 * - = % $ % $ $ % t >.7.7.w.            ",
"          ( @.q.q.a.p ; 1 4 ; $ $ % % @ * y / 6.q.7.            ",
"          _ 5.q.y.N.p ; i u < > ; , , = : i | %.7.7.w.          ",
"        Q ..7.7.d.B.p 2 u k s 9 s g d 6 u u g.u.3.q.8.          ",
"        ( +.7.8.S.H.b 2 8 j j k N V Z V j 8 g.m.>.q.7.          ",
"        ( *.q.e.S.b.n < 0 B j j V A S S C 0 j.V.-.q.8.          ",
"        ( *.q.e.N.L 5 5 B B d g A S S S C k k.V.-.q.7.          ",
"        ( @.q.r.S.W 7 k K l s g x A A l c c v.m.=.q.8.          ",
"        Q X.7.7.C.c.D C L z a a x H x f A f.H.p.1.7.8.          ",
"          ' 7.7.s.G.x.E I S V l v J v h U b.F.&.7.7.8.          ",
"          ) ,.7.8.Z.G.x.L G G Z x J U P h.H.n.<.q.q.            ",
"            [ 7.7.t.S.c.G C K V V G J Y z.V.:.7.7.w.            ",
"            ) @.q.7.y.S.R C S l N H S Y l.0.7.7.8.              ",
"              _ ,.q.7.e.i.T x g M N m  .2.7.7.7.                ",
"                ' >.7.q.q.4.%.} } %.<.7.q.7.8.                  ",
"                  ` +.3.7.q.q.q.q.q.q.7.7.w.                    ",
"                      { #.3.6.8.q.w.w.w.                        ",
"                                                                ",
"                                                                ",
"                                                                ",
"                                                                ",
"                                                                "
};
